<svg xmlns="http://www.w3.org/2000/svg" width="32" height="32" viewBox="0 0 32 32" fill="none">
  <!-- Shadow -->
  <rect x="5" y="5" width="22" height="25" rx="3" fill="#6B4F10"/>
  <!-- Notepad body -->
  <rect x="3" y="3" width="22" height="25" rx="3" fill="#8B6914"/>
  <!-- Page -->
  <rect x="6" y="6" width="16" height="20" rx="1.5" fill="#FFFBF0"/>
  <!-- Spiral binding dots -->
  <circle cx="6" cy="9" r="1.2" fill="#6B4F10"/>
  <circle cx="6" cy="14" r="1.2" fill="#6B4F10"/>
  <circle cx="6" cy="19" r="1.2" fill="#6B4F10"/>
  <circle cx="6" cy="24" r="1.2" fill="#6B4F10"/>
  <!-- Lines on page -->
  <line x1="10" y1="11" x2="19" y2="11" stroke="#8B6914" stroke-width="1" stroke-opacity="0.3" stroke-linecap="round"/>
  <line x1="10" y1="15" x2="18" y2="15" stroke="#8B6914" stroke-width="1" stroke-opacity="0.3" stroke-linecap="round"/>
  <line x1="10" y1="19" x2="17" y2="19" stroke="#8B6914" stroke-width="1" stroke-opacity="0.3" stroke-linecap="round"/>
  <!-- Pencil -->
  <rect x="24" y="2" width="4.5" height="20" rx="1" fill="#E8A317"/>
  <rect x="24" y="2" width="4.5" height="3.5" rx="1" fill="#CD853F"/>
  <rect x="24" y="18" width="4.5" height="4" fill="#C0C0C0"/>
  <polygon points="24,22 28.5,22 26.25,27" fill="#F5DEB3"/>
  <polygon points="25.5,27 27,27 26.25,29" fill="#444"/>
</svg>
